<?xml version="1.0" encoding="UTF-8"?>
<svg id="_레이어_2" data-name="레이어 2" xmlns="http://www.w3.org/2000/svg" xmlns:xlink="http://www.w3.org/1999/xlink" viewBox="0 0 48 48">
  <defs>
    <style>
      .cls-1 {
        fill: none;
      }

      .cls-1, .cls-2, .cls-3 {
        stroke-width: 0px;
      }

      .cls-4 {
        clip-path: url(#clippath);
      }

      .cls-2 {
        fill: #005fe8;
      }

      .cls-3 {
        fill: #fff;
      }
    </style>
    <clipPath id="clippath">
      <rect class="cls-1" width="48" height="48"/>
    </clipPath>
  </defs>
  <g id="_레이어_1-2" data-name="레이어 1">
    <g class="cls-4">
      <path class="cls-2" d="M46.8,20.05l-9.5-14.26c-1.32-1.98-3.55-3.17-5.93-3.17H7.13C3.19,2.61,0,5.81,0,9.74v28.51c0,3.94,3.19,7.13,7.13,7.13h24.24c2.38,0,4.61-1.19,5.93-3.17l9.5-14.26c1.6-2.39,1.6-5.51,0-7.91Z"/>
      <path class="cls-3" d="M32.19,20.18v-.04c0-2.11-.44-3.94-1.33-5.49-.89-1.55-2.15-2.76-3.77-3.62-1.63-.86-3.55-1.29-5.78-1.29h-12.75v28.51h8.38v-7.79h4.37c2.23,0,4.15-.42,5.78-1.26,1.63-.84,2.89-2.03,3.77-3.57.89-1.54,1.33-3.37,1.33-5.47ZM23.73,20.18c0,1.36-.39,2.38-1.18,3.07-.78.69-1.87,1.04-3.25,1.04h-2.37v-8.24h2.37c1.38,0,2.47.34,3.25,1.02s1.18,1.7,1.18,3.07v.04Z"/>
    </g>
  </g>
</svg>